<?xml version="1.0" encoding="utf-8"?>
<!-- Generator: Adobe Illustrator 18.1.0, SVG Export Plug-In . SVG Version: 6.00 Build 0)  -->
<!DOCTYPE svg PUBLIC "-//W3C//DTD SVG 1.1//EN" "http://www.w3.org/Graphics/SVG/1.1/DTD/svg11.dtd">
<svg version="1.1" id="Layer_1" xmlns="http://www.w3.org/2000/svg" xmlns:xlink="http://www.w3.org/1999/xlink" x="0px" y="0px"
	 viewBox="-6.9 351.5 618.9 314.6" enable-background="new -6.9 351.5 618.9 314.6" xml:space="preserve">
<rect x="-6.9" y="351.5" fill="#FFFFFF" width="615.5" height="314.6"/>
<g>
	<g>
		<g>
			<defs>
				<rect id="SVGID_1_" x="19.6" y="456.9" width="561.9" height="189.4"/>
			</defs>
			<clipPath id="SVGID_2_">
				<use xlink:href="#SVGID_1_"  overflow="visible"/>
			</clipPath>
			<g clip-path="url(#SVGID_2_)">
				<rect x="6.6" y="460" fill="none" width="590.8" height="207.2"/>
				<text transform="matrix(1 0 0 1 6.5508 645.1143)" fill="#F15A25" font-family="'BauhausStd-Bold'" font-size="264.544">FADE</text>
				<line fill="none" stroke="#FFFFFF" stroke-width="2" stroke-miterlimit="10" x1="577.5" y1="437.9" x2="577.5" y2="706.2"/>
				<line fill="none" stroke="#FFFFFF" stroke-width="2" stroke-miterlimit="10" x1="569.9" y1="444.5" x2="569.9" y2="712.8"/>
				<line fill="none" stroke="#FFFFFF" stroke-width="2" stroke-miterlimit="10" x1="561.1" y1="429.4" x2="561.1" y2="697.7"/>
				<line fill="none" stroke="#FFFFFF" stroke-width="2" stroke-miterlimit="10" x1="549.6" y1="422" x2="549.6" y2="690.3"/>
				<line fill="none" stroke="#FFFFFF" stroke-width="2" stroke-miterlimit="10" x1="538" y1="429.4" x2="538" y2="697.7"/>
				<line fill="none" stroke="#FFFFFF" stroke-width="2" stroke-miterlimit="10" x1="523.7" y1="429.4" x2="523.7" y2="697.7"/>
				<line fill="none" stroke="#FFFFFF" stroke-width="2" stroke-miterlimit="10" x1="509.4" y1="444.5" x2="509.4" y2="712.8"/>
				<line fill="none" stroke="#FFFFFF" stroke-width="2" stroke-miterlimit="10" x1="491.7" y1="429.4" x2="491.7" y2="697.7"/>
				<line fill="none" stroke="#FFFFFF" stroke-width="2" stroke-miterlimit="10" x1="444.3" y1="429.4" x2="444.3" y2="697.7"/>
				<line fill="none" stroke="#FFFFFF" stroke-width="2" stroke-miterlimit="10" x1="427.2" y1="429.4" x2="427.2" y2="697.7"/>
				<line fill="none" stroke="#FFFFFF" stroke-width="2" stroke-miterlimit="10" x1="364.9" y1="422" x2="364.9" y2="690.3"/>
				<line fill="none" stroke="#FFFFFF" stroke-width="2" stroke-miterlimit="10" x1="208.4" y1="429.4" x2="208.4" y2="697.7"/>
				<line fill="none" stroke="#FFFFFF" stroke-width="2" stroke-miterlimit="10" x1="236" y1="437.9" x2="236" y2="706.2"/>
				<line fill="none" stroke="#FFFFFF" stroke-width="2" stroke-miterlimit="10" x1="259.7" y1="451.6" x2="259.7" y2="719.9"/>
				<line fill="none" stroke="#FFFFFF" stroke-width="2" stroke-miterlimit="10" x1="409.6" y1="444.5" x2="409.6" y2="712.8"/>
				<line fill="none" stroke="#FFFFFF" stroke-width="2" stroke-miterlimit="10" x1="476.1" y1="414.8" x2="476.1" y2="683"/>
				<line fill="none" stroke="#FFFFFF" stroke-width="2" stroke-miterlimit="10" x1="387.2" y1="437.9" x2="387.2" y2="706.2"/>
				<line fill="none" stroke="#FFFFFF" stroke-width="2" stroke-miterlimit="10" x1="338.7" y1="398.9" x2="338.7" y2="667.1"/>
				<line fill="none" stroke="#FFFFFF" stroke-width="2" stroke-miterlimit="10" x1="314.5" y1="422" x2="314.5" y2="690.3"/>
				<line fill="none" stroke="#FFFFFF" stroke-width="2" stroke-miterlimit="10" x1="178.4" y1="422" x2="178.4" y2="690.3"/>
			</g>
		</g>
	</g>
</g>
</svg>
